<mxfile host="app.diagrams.net" agent="Mozilla/5.0 (Windows NT 10.0; Win64; x64) AppleWebKit/537.36 (KHTML, like Gecko) Chrome/126.0.0.0 Safari/537.36 OPR/112.0.0.0" version="24.7.15">
  <diagram name="Страница — 1" id="9rrrdRkWcLUXGcR03QzG">
    <mxGraphModel dx="663" dy="397" grid="1" gridSize="10" guides="1" tooltips="1" connect="1" arrows="1" fold="1" page="1" pageScale="1" pageWidth="827" pageHeight="1169" math="0" shadow="0">
      <root>
        <mxCell id="0" />
        <mxCell id="1" parent="0" />
        <mxCell id="czBi0rJOIF8hPthaUBQi-1" value="Заместитель директора&lt;br&gt;по учебной работе" style="shape=umlActor;verticalLabelPosition=bottom;verticalAlign=top;html=1;outlineConnect=0;" vertex="1" parent="1">
          <mxGeometry x="380" y="245" width="30" height="60" as="geometry" />
        </mxCell>
        <mxCell id="czBi0rJOIF8hPthaUBQi-2" value="Директор" style="shape=umlActor;verticalLabelPosition=bottom;verticalAlign=top;html=1;outlineConnect=0;" vertex="1" parent="1">
          <mxGeometry x="80" y="250" width="30" height="60" as="geometry" />
        </mxCell>
        <mxCell id="czBi0rJOIF8hPthaUBQi-11" value="Контроль за учебной нагрузкой" style="ellipse;whiteSpace=wrap;html=1;" vertex="1" parent="1">
          <mxGeometry x="480" y="290" width="130" height="60" as="geometry" />
        </mxCell>
        <mxCell id="czBi0rJOIF8hPthaUBQi-12" value="Составление расписания" style="ellipse;whiteSpace=wrap;html=1;" vertex="1" parent="1">
          <mxGeometry x="480" y="215" width="130" height="60" as="geometry" />
        </mxCell>
        <mxCell id="czBi0rJOIF8hPthaUBQi-14" value="" style="endArrow=classic;html=1;rounded=0;entryX=0;entryY=0.5;entryDx=0;entryDy=0;" edge="1" parent="1" source="czBi0rJOIF8hPthaUBQi-2" target="czBi0rJOIF8hPthaUBQi-18">
          <mxGeometry width="50" height="50" relative="1" as="geometry">
            <mxPoint x="310" y="400" as="sourcePoint" />
            <mxPoint x="169.99999999999886" y="325" as="targetPoint" />
          </mxGeometry>
        </mxCell>
        <mxCell id="czBi0rJOIF8hPthaUBQi-15" value="" style="endArrow=classic;html=1;rounded=0;entryX=0;entryY=0.5;entryDx=0;entryDy=0;" edge="1" parent="1" source="czBi0rJOIF8hPthaUBQi-2" target="czBi0rJOIF8hPthaUBQi-19">
          <mxGeometry width="50" height="50" relative="1" as="geometry">
            <mxPoint x="310" y="400" as="sourcePoint" />
            <mxPoint x="169.99999999999886" y="245" as="targetPoint" />
          </mxGeometry>
        </mxCell>
        <mxCell id="czBi0rJOIF8hPthaUBQi-16" value="" style="endArrow=classic;html=1;rounded=0;entryX=0;entryY=0.5;entryDx=0;entryDy=0;" edge="1" parent="1" source="czBi0rJOIF8hPthaUBQi-1" target="czBi0rJOIF8hPthaUBQi-12">
          <mxGeometry width="50" height="50" relative="1" as="geometry">
            <mxPoint x="310" y="400" as="sourcePoint" />
            <mxPoint x="360" y="350" as="targetPoint" />
          </mxGeometry>
        </mxCell>
        <mxCell id="czBi0rJOIF8hPthaUBQi-17" value="" style="endArrow=classic;html=1;rounded=0;entryX=0;entryY=0.5;entryDx=0;entryDy=0;" edge="1" parent="1" source="czBi0rJOIF8hPthaUBQi-1" target="czBi0rJOIF8hPthaUBQi-11">
          <mxGeometry width="50" height="50" relative="1" as="geometry">
            <mxPoint x="310" y="400" as="sourcePoint" />
            <mxPoint x="360" y="350" as="targetPoint" />
          </mxGeometry>
        </mxCell>
        <mxCell id="czBi0rJOIF8hPthaUBQi-18" value="Руководство учебной деятельностью" style="ellipse;whiteSpace=wrap;html=1;" vertex="1" parent="1">
          <mxGeometry x="170" y="290" width="130" height="60" as="geometry" />
        </mxCell>
        <mxCell id="czBi0rJOIF8hPthaUBQi-19" value="Утверждение рабочего расписания" style="ellipse;whiteSpace=wrap;html=1;" vertex="1" parent="1">
          <mxGeometry x="170" y="215" width="130" height="60" as="geometry" />
        </mxCell>
      </root>
    </mxGraphModel>
  </diagram>
</mxfile>
